<svg width="200" height="60" viewBox="0 0 200 60" xmlns="http://www.w3.org/2000/svg">
  <!-- Background cloud shape -->
  <path d="M10 40 C10 35, 15 30, 25 30 C30 25, 40 25, 45 30 C50 25, 60 25, 65 30 C70 25, 80 25, 85 30 C90 25, 100 25, 105 30 C110 25, 120 25, 125 30 C130 25, 140 25, 145 30 C150 25, 160 25, 165 30 C170 25, 180 25, 185 30 C190 35, 190 40, 185 45 C180 50, 170 50, 165 45 C160 50, 150 50, 145 45 C140 50, 130 50, 125 45 C120 50, 110 50, 105 45 C100 50, 90 50, 85 45 C80 50, 70 50, 65 45 C60 50, 50 50, 45 45 C40 50, 30 50, 25 45 C15 50, 10 45, 10 40 Z" fill="white" stroke="#ddd" stroke-width="1"/>
  
  <!-- Gymboland text -->
  <text x="20" y="35" font-family="Arial, sans-serif" font-size="24" font-weight="bold" fill="#e91e63">G</text>
  <text x="35" y="35" font-family="Arial, sans-serif" font-size="24" font-weight="bold" fill="#ffc107">Y</text>
  <text x="50" y="35" font-family="Arial, sans-serif" font-size="24" font-weight="bold" fill="#00bcd4">M</text>
  <text x="70" y="35" font-family="Arial, sans-serif" font-size="24" font-weight="bold" fill="#e91e63">B</text>
  <text x="88" y="35" font-family="Arial, sans-serif" font-size="24" font-weight="bold" fill="#8bc34a">O</text>
  <text x="108" y="35" font-family="Arial, sans-serif" font-size="24" font-weight="bold" fill="#ffc107">L</text>
  <text x="122" y="35" font-family="Arial, sans-serif" font-size="24" font-weight="bold" fill="#ff9800">A</text>
  <text x="140" y="35" font-family="Arial, sans-serif" font-size="24" font-weight="bold" fill="#00bcd4">N</text>
  <text x="160" y="35" font-family="Arial, sans-serif" font-size="24" font-weight="bold" fill="#9c27b0">D</text>
  
  <!-- Hedgehog character -->
  <g transform="translate(170, 15)">
    <!-- Body -->
    <ellipse cx="15" cy="20" rx="12" ry="15" fill="#40e0d0"/>
    <!-- Head -->
    <circle cx="15" cy="8" r="8" fill="#f5deb3"/>
    <!-- Spikes -->
    <path d="M8 12 L6 8 L10 10 M12 6 L10 2 L14 4 M18 6 L20 2 L16 4 M22 12 L24 8 L20 10" stroke="#40e0d0" stroke-width="2" fill="none"/>
    <!-- Eye -->
    <circle cx="12" cy="6" r="2" fill="#228b22"/>
    <!-- Nose -->
    <circle cx="10" cy="9" r="1" fill="black"/>
    <!-- Smile -->
    <path d="M8 11 Q10 13 12 11" stroke="black" stroke-width="1" fill="none"/>
    <!-- Arm pointing -->
    <path d="M7 15 L2 12" stroke="#f5deb3" stroke-width="2" stroke-linecap="round"/>
  </g>
  
  <!-- Subtitle -->
  <text x="25" y="52" font-family="Arial, sans-serif" font-size="10" fill="#e91e63" font-style="italic">Toți copiii sunt fericiți</text>
</svg> 